<?xml version="1.0" standalone="no"?>
<!DOCTYPE svg PUBLIC "-//W3C//DTD SVG 1.1//EN" "http://www.w3.org/Graphics/SVG/1.1/DTD/svg11.dtd" >
<!--
2014-2-17: Created.
-->
<svg xmlns="http://www.w3.org/2000/svg">
<metadata>
Created by FontForge 20110222 at Mon Feb 17 18:02:07 2014
 By Ubuntu
Created by Ubuntu with FontForge 2.0 (http://fontforge.sf.net)
</metadata>
<defs>
<font id="iconvault" horiz-adv-x="512" >
  <font-face 
    font-family="iconvault"
    font-weight="500"
    font-stretch="normal"
    units-per-em="512"
    panose-1="2 0 6 9 0 0 0 0 0 0"
    ascent="448"
    descent="-64"
    bbox="102.4 37.7139 409.605 442.952"
    underline-thickness="25.6"
    underline-position="-51.2"
    unicode-range="U+F100-F113"
  />
    <missing-glyph />
    <glyph glyph-name="uniF100" unicode="&#xf100;" 
d="M256 442.952c84.8184 0 153.6 -69.2891 153.6 -154.753c0 -85.4473 -121.042 -248.657 -153.6 -249.794c-32.5479 -1.13672 -153.6 164.347 -153.6 249.794c0 85.4688 68.7666 154.753 153.6 154.753zM256 222.945c42.8955 0 77.6504 34.7754 77.6504 77.6602
s-34.7549 77.6602 -77.6504 77.6602c-42.8799 0 -77.6553 -34.7754 -77.6553 -77.6602s34.7803 -77.6602 77.6553 -77.6602z" />
    <glyph glyph-name="uniF101" unicode="&#xf101;" 
d="M256.036 345.6c84.8428 0 153.563 -68.7715 153.563 -153.538c0 -84.8643 -68.7207 -153.661 -153.563 -153.661c-84.8545 0 -153.636 68.7969 -153.636 153.661c0 84.7666 68.7812 153.538 153.636 153.538zM292.429 239.473v0v25.3232h-23.1318
c-19.1436 0 -33.0342 -16.333 -33.0342 -36.3926v-13.9824h-24.7354v-23.7832h24.7354v-71.4082h27.2744v71.4082h28.8916v23.7832h-28.8916v16.6904c0 4.78711 3 8.36133 5.75977 8.36133h23.1318z" />
    <glyph glyph-name="uniF102" unicode="&#xf102;" 
d="M200.396 145.132l-28.9375 29.8799l6.37402 30.0029l51.6455 -53.3037zM256 345.605c84.8281 0 153.6 -68.7725 153.6 -153.601s-68.7715 -153.6 -153.6 -153.6s-153.6 68.7715 -153.6 153.6s68.7715 153.601 153.6 153.601zM247.337 297.252l-0.255859 -0.307617
l71.25 -73.5693l0.301758 0.296875c9.20605 9.51367 9.20605 24.9199 0 34.4326l-37.9443 39.1475c-9.18555 9.5127 -24.1104 9.5127 -33.3516 0zM297.021 201.38v0l15.3496 15.8467l-18.6875 19.292l-34.7598 -35.8857h0.00488281l-25.3135 -26.1328l18.6885 -19.292z
M229.115 224.148c0 -0.00488281 0.00488281 -0.00488281 0 0l-21.7861 -22.502l18.6885 -19.3076l40.248 41.5693v0l19.8096 20.459l-18.6729 19.2979zM199.629 247.987c0.00488281 0 0.00488281 0 0 0l-18.5908 -19.21l18.6729 -19.2979l37.1094 38.2979
c-0.00488281 0.00488281 -0.00488281 0.00488281 -0.00976562 0.00488281l22.9785 23.7158l-18.6777 19.3076l-25.4209 -26.2402h-0.00488281l-3.39453 -3.51172zM173.9 222.372l-20.3008 -95.4834l92.4883 20.9561zM358.4 126.889v12.8516h-104.023l-48.6553 -12.8516
h152.679z" />
    <glyph glyph-name="uniF103" unicode="&#xf103;" 
d="M256 345.6c84.833 0 153.6 -68.7715 153.6 -153.6c0 -84.8232 -68.7666 -153.6 -153.6 -153.6s-153.6 68.7764 -153.6 153.6c0 84.8281 68.7666 153.6 153.6 153.6zM281.651 168.842c1.65918 3.88672 2.48828 8.1875 2.47754 12.8926
c0 3.80957 -0.614258 7.3623 -1.84277 10.6602c-1.22363 3.30176 -3.04688 6.17969 -5.46289 8.63672c-2.42188 2.45801 -5.40137 4.38281 -8.93945 5.77539c-3.54297 1.3877 -7.64941 2.08984 -12.3193 2.08984c-3.31738 0 -6.9834 -0.410156 -10.9971 -1.22949
l3.19434 18.5547h24.4531c3.19531 0 5.47852 0.675781 6.85059 2.02832c1.37207 1.35156 2.05859 3.1123 2.05859 5.2832v6.45117h-43.8682l-7.36816 -43.1309l9.46191 -2.69336c4.33691 1.55664 8.66309 2.33496 12.9639 2.33496
c5.44824 0 9.57422 -1.36719 12.3799 -4.09082s4.20898 -6.50195 4.20898 -11.3359c0 -2.62109 -0.358398 -5.04297 -1.08008 -7.28027c-0.716797 -2.23242 -1.78223 -4.15723 -3.19043 -5.77539c-1.41309 -1.61816 -3.18945 -2.87695 -5.31445 -3.77832
c-2.12988 -0.901367 -4.58691 -1.35156 -7.37207 -1.35156c-2.62207 0 -4.85938 0.322266 -6.69727 0.982422c-1.84375 0.655273 -3.4668 1.37207 -4.85352 2.15039c-1.39844 0.773438 -2.61133 1.49512 -3.65625 2.15039
c-1.04395 0.65625 -2.07812 0.978516 -3.10254 0.978516c-1.64355 0 -2.9541 -0.696289 -3.93164 -2.08398l-4.66992 -6.45605c1.47949 -1.3877 3.14355 -2.70898 5.00781 -3.95801c1.86328 -1.24902 3.89062 -2.35547 6.08203 -3.31738
c2.19141 -0.958008 4.53613 -1.73145 7.03516 -2.30469c2.49316 -0.568359 5.14062 -0.860352 7.92578 -0.860352c4.75098 0 9.14453 0.757812 13.1787 2.27344s7.52148 3.65625 10.4756 6.4209s5.25781 6.09277 6.91211 9.9834z" />
    <glyph glyph-name="uniF104" unicode="&#xf104;" 
d="M257.68 245.12c-51.3184 0.511719 -87.4912 3.81445 -92.3398 -54.6611h-62.6279c0 88.8828 77.5068 100.864 153.339 100.864c75.8125 0 153.334 -11.9814 153.334 -100.864h-63.124c-4.3877 57.3691 -36.8076 54.1494 -88.5811 54.6611zM134.016 161.89
c-17.4541 0 -31.6152 -1.21875 -31.6152 21.2832h62.499h0.732422c0 -2.70312 -0.219727 -5.02734 -0.609375 -7.08105c-2.83594 -15.124 -15.6309 -14.2021 -31.0068 -14.2021zM346.665 183.173h62.9346c0 -21.3193 -14.2129 -20.1621 -31.7637 -20.1621
c-15.3145 0 -28.0889 -0.865234 -31.0938 13.0811c-0.430664 2.02832 -0.661133 4.36816 -0.661133 7.08105h0.583984zM315.827 198.497v-7.80762c14.9814 -15.5596 63.9697 -81.7617 65.7305 -89.5488v-53.7803c0 -4.94141 -4.01855 -8.95996 -8.96484 -8.95996h-239.007
c-4.94629 0 -8.96484 4.01855 -8.96484 8.95996l-0.0205078 53.5088c1.77637 8.02344 50.7744 74.2607 65.751 89.8203v7.80273v8.93945c0 3.99902 4.61328 4.25 10.291 4.25h9.28809c5.6875 0 10.2959 -0.250977 10.2959 -4.25v-7.7002v-5.96973h65.7207v5.97461v7.7002
c0 3.99902 4.6123 4.25 10.2959 4.25h9.28809c5.69336 0 10.2959 -0.250977 10.2959 -4.25v-8.93945zM216.985 93.6699c4.81348 0 8.70898 3.90234 8.70898 8.71484s-3.89551 8.70898 -8.70898 8.70898c-4.8125 0 -8.71387 -3.89648 -8.71387 -8.70898
s3.90137 -8.71484 8.71387 -8.71484zM216.985 123.551c4.81348 0 8.70898 3.89648 8.70898 8.70898s-3.89551 8.70898 -8.70898 8.70898c-4.8125 0 -8.71387 -3.89648 -8.71387 -8.70898s3.90137 -8.70898 8.71387 -8.70898zM216.985 153.421
c4.81348 0 8.70898 3.90137 8.70898 8.71387c0 4.81348 -3.89551 8.71484 -8.70898 8.71484c-4.8125 0 -8.71387 -3.90137 -8.71387 -8.71484c0 -4.8125 3.90137 -8.71387 8.71387 -8.71387zM252.841 93.6699c4.80762 0 8.70898 3.90234 8.70898 8.71484
s-3.90137 8.70898 -8.70898 8.70898c-4.81738 0 -8.71387 -3.89648 -8.71387 -8.70898s3.89648 -8.71484 8.71387 -8.71484zM252.841 123.551c4.80762 0 8.70898 3.89648 8.70898 8.70898s-3.90137 8.70898 -8.70898 8.70898
c-4.81738 0 -8.71387 -3.89648 -8.71387 -8.70898s3.89648 -8.70898 8.71387 -8.70898zM252.841 153.421c4.80762 0 8.70898 3.90137 8.70898 8.71387c0 4.81348 -3.90137 8.71484 -8.70898 8.71484c-4.81738 0 -8.71387 -3.90137 -8.71387 -8.71484
c0 -4.8125 3.89648 -8.71387 8.71387 -8.71387zM288.687 93.6699c4.8125 0 8.71387 3.90234 8.71387 8.71484s-3.90137 8.70898 -8.71387 8.70898c-4.80859 0 -8.70996 -3.89648 -8.70996 -8.70898s3.90137 -8.71484 8.70996 -8.71484zM288.687 123.551
c4.8125 0 8.71387 3.89648 8.71387 8.70898s-3.90137 8.70898 -8.71387 8.70898c-4.80859 0 -8.70996 -3.89648 -8.70996 -8.70898s3.90137 -8.70898 8.70996 -8.70898zM288.687 153.421c4.8125 0 8.71387 3.90137 8.71387 8.71387
c0 4.81348 -3.90137 8.71484 -8.71387 8.71484c-4.80859 0 -8.70996 -3.90137 -8.70996 -8.71484c0 -4.8125 3.90137 -8.71387 8.70996 -8.71387z" />
    <glyph glyph-name="uniF105" unicode="&#xf105;" 
d="M175.058 167.275c9.67188 0 17.5107 -7.83887 17.5107 -17.5098v-111.182c0 -0.0664062 -0.00488281 -0.117188 -0.00488281 -0.183594h-90.1582c0 0.0664062 -0.00488281 0.117188 -0.00488281 0.183594v111.182c0 9.6709 7.83789 17.5098 17.5098 17.5098h55.1475z
M107.208 220.252c0 26.8529 13.4261 40.2793 40.2783 40.2793c26.8529 0 40.2793 -13.4264 40.2793 -40.2793s-13.4264 -40.2793 -40.2793 -40.2793c-26.8522 0 -40.2783 13.4264 -40.2783 40.2793zM392.09 167.275c9.67188 0 17.5098 -7.83887 17.5098 -17.5098v-111.182
l-0.00488281 -0.183594h-90.1582c0 0.0664062 -0.00488281 0.117188 -0.00488281 0.183594v111.182c0 9.6709 7.83887 17.5098 17.5107 17.5098h55.1475zM324.229 220.252c0 26.8529 13.4261 40.2793 40.2783 40.2793c26.8529 0 40.2793 -13.4264 40.2793 -40.2793
s-13.4264 -40.2793 -40.2793 -40.2793c-26.8522 0 -40.2783 13.4264 -40.2783 40.2793zM282.66 167.275c9.6709 0 17.5049 -7.83887 17.5049 -17.5098v-111.182c0 -0.0664062 -0.00488281 -0.117188 -0.00488281 -0.183594h-90.1533
c0 0.0664062 -0.00488281 0.117188 -0.00488281 0.183594v111.182c0 9.6709 7.83887 17.5098 17.5 17.5098h55.1582zM214.8 220.252c0 26.8529 13.4261 40.2793 40.2783 40.2793c26.8529 0 40.2793 -13.4264 40.2793 -40.2793s-13.4264 -40.2793 -40.2793 -40.2793
c-26.8522 0 -40.2783 13.4264 -40.2783 40.2793z" />
    <glyph glyph-name="uniF106" unicode="&#xf106;" 
d="M255.084 345.6c85.1963 0 154.516 -68.8994 154.516 -153.59c0 -84.7051 -69.3193 -153.609 -154.516 -153.609c-77.1328 0 -141.221 56.4678 -152.684 130.007h50.3496c10.793 -46.2744 52.5625 -80.8447 102.334 -80.8447c57.9424 0 105.077 46.8477 105.077 104.447
c0 57.5801 -47.1348 104.434 -105.077 104.434c-30.3623 0 -57.7236 -12.8877 -76.9336 -33.4287l23.6699 -16.1846l-99.4199 -47.0479l8.71875 109.097l26.0303 -17.7812c28.3545 33.3213 70.707 54.502 117.935 54.502zM250.885 264.586h8.67383v-67.916h46.8633v-8.61719
h-46.8633h-8.67383v8.61719v67.916z" />
    <glyph glyph-name="uniF107" unicode="&#xf107;" 
d="M256 345.6c84.833 0 153.6 -68.7715 153.6 -153.6s-68.7666 -153.6 -153.6 -153.6s-153.6 68.7715 -153.6 153.6c0 84.833 68.7666 153.6 153.6 153.6zM280.1 148.562h0.00488281v11.3672h-15.9688v77.5986h-12.4775l-27.0947 -23.04l4.79688 -6.5791
c0.323242 -0.451172 0.830078 -0.850586 1.50586 -1.19336c0.670898 -0.353516 1.42285 -0.527344 2.24219 -0.527344c0.527344 0 1.07031 0.0820312 1.62305 0.246094c0.547852 0.168945 1.09082 0.470703 1.62305 0.926758l12.7793 10.6904
c-0.123047 -2.21191 -0.183594 -4.32129 -0.183594 -6.32812v-51.7891h-18.002v-11.3721h49.1514z" />
    <glyph glyph-name="uniF108" unicode="&#xf108;" 
d="M389.089 215.537c11.3203 0 20.5107 -9.18555 20.5166 -20.5264c0 -11.3252 -9.19043 -20.5156 -20.5107 -20.5156h-109.287h-30.3564c-13.1992 0 -23.9355 -10.7422 -23.9355 -23.9414c0 -10.6602 7.00391 -19.707 16.6602 -22.7998
c-9.65625 -3.07715 -16.6602 -12.1289 -16.6602 -22.7891c0 -10.665 7.00391 -19.707 16.6602 -22.7988c-9.65625 -3.08789 -16.6602 -12.1348 -16.6602 -22.7998c0 -9.5791 5.66797 -17.833 13.8037 -21.6523h-114.12c-12.5898 0 -22.7988 10.209 -22.7988 22.7939v132.234
c0 0.609375 0.0507812 1.21387 0.0966797 1.8125c-0.168945 7.50098 3.71777 14.8281 10.793 18.5908l143.411 76.2676c10.0098 5.31934 22.4307 1.52051 27.7451 -8.4834c5.32031 -10.0049 1.52637 -22.4258 -8.47852 -27.751l-70.7783 -37.6416h21.4629h30.3516h132.085z
M310.149 167.659c9.42578 0 17.1055 -7.66895 17.1055 -17.1006c0 -9.42578 -7.67969 -17.1006 -17.1055 -17.1006h-30.3467h-30.3564c-9.42578 0 -17.0957 7.6748 -17.0957 17.1006c0 9.43164 7.66992 17.1006 17.0957 17.1006h30.3564h30.3467zM310.149 122.061
c9.42578 0 17.1055 -7.65918 17.1055 -17.0898c0 -9.43652 -7.67969 -17.1016 -17.1055 -17.1016h-30.3467h-30.3564c-9.42578 0 -17.0957 7.66504 -17.0957 17.1016c0 9.43066 7.66992 17.0898 17.0957 17.0898h30.3564h30.3467zM310.149 76.4727
c9.42578 0 17.1055 -7.66992 17.1055 -17.1016c0 -9.42578 -7.67969 -17.0957 -17.1055 -17.0957h-39.5166h-21.1865c-9.42578 0 -17.0957 7.66992 -17.0957 17.0957c0 9.43164 7.66992 17.1016 17.0957 17.1016h30.3564h30.3467z" />
    <glyph glyph-name="uniF109" unicode="&#xf109;" 
d="M309.949 149.079c5.58594 -9.82031 14.2031 -17.5312 21.376 -22.7178c-19.6758 0.333008 -33.7764 11.9551 -40.499 18.8984l-1.10059 1.13086l-1.31055 -0.332031c-6.4668 -1.77148 -13.1641 -2.65723 -19.8506 -2.65723c-40.3818 0 -73.1953 31.3496 -73.1953 69.8672
c0 38.5283 32.8135 69.8779 73.1953 69.8779c40.3408 0 73.1602 -31.3496 73.1602 -69.8779c0 -22.3486 -11.459 -43.5967 -30.6895 -56.7656l-3.83008 -2.62598zM256 345.6c84.8281 0 153.6 -68.7715 153.6 -153.6s-68.7715 -153.6 -153.6 -153.6
s-153.6 68.7715 -153.6 153.6s68.7715 153.6 153.6 153.6zM210.289 128.568c10.3418 0 20.0342 2.73926 28.3799 7.50098c-31.6777 9.12402 -54.8252 37.7236 -54.8252 71.6436c0 9.47754 1.83789 18.5449 5.14551 26.8906
c-20.5518 -8.20215 -35.0518 -27.9346 -35.0518 -50.9697c0 -18.6523 9.50293 -35.123 24.0137 -45.0918c-7.64453 -13.4297 -24.0137 -21.4326 -24.0137 -21.4326c20.6289 -4.89453 35.4561 7.42969 41.2725 13.4707c4.80273 -1.31055 9.8457 -2.01172 15.0791 -2.01172z
M345.667 119.173l13.0762 3.08301l-12.5801 6.15918c-0.189453 0.107422 -17.7256 8.78516 -28.2012 23.1367c19.1289 14.9658 30.418 37.9756 30.418 62.5c0 43.8115 -35.7168 79.4316 -79.5898 79.4316c-43.8936 0 -79.5859 -35.6201 -79.5859 -79.4316
c0 -43.791 35.6924 -79.4316 79.5859 -79.4316c6.62012 0 13.2451 0.814453 19.7012 2.48828c7.81348 -7.79785 23.0967 -19.5273 43.9453 -19.5273c4.37793 0 8.82715 0.532227 13.2305 1.5918z" />
    <glyph glyph-name="uniF10A" unicode="&#xf10a;" 
d="M256.025 345.6c84.7773 0 153.574 -68.7002 153.574 -153.543c0 -84.8643 -68.7969 -153.656 -153.574 -153.656c-84.8379 0 -153.625 68.792 -153.625 153.656c0 84.7715 68.7871 153.543 153.625 153.543zM350.387 157.624c2.14551 26.8496 2.14551 43.8271 0 70.667
c-1.02832 12.7842 -8.68262 28.8916 -24.2988 29.4854c-43.7354 2.92383 -95.5342 3.71777 -140.114 0c-13.7725 -1.53613 -23.2549 -18.4062 -24.2793 -31.1855c-2.16504 -26.834 -2.16504 -42.1172 0 -68.9668c1.02441 -12.7539 10.251 -29.6807 24.2793 -31.4209
c45.0713 -2.99512 96.6504 -3.38965 140.114 0c13.5625 2.35547 23.2705 18.6367 24.2988 31.4209zM236.836 153.636v76.7949l57.5693 -38.374z" />
    <glyph glyph-name="uniF10B" unicode="&#xf10b;" 
d="M255.964 345.6c84.8438 0 153.636 -68.7764 153.636 -153.549c0 -84.8584 -68.792 -153.65 -153.636 -153.65c-84.7715 0 -153.563 68.792 -153.563 153.65c0 84.7725 68.792 153.549 153.563 153.549zM318.489 219.781c5.92969 4.26465 11.0391 9.62012 15.1201 15.667
c-5.47852 -2.41699 -11.2695 -3.99902 -17.3877 -4.77148c6.24121 3.77344 11.0283 9.6709 13.2402 16.7676c-5.78027 -3.48145 -12.2881 -6.00586 -19.1689 -7.35742c-5.54004 5.88281 -13.4043 9.52344 -22.0732 9.52344c-16.6904 0 -30.2793 -13.502 -30.2793 -30.2285
c0 -2.37598 0.266602 -4.71582 0.757812 -6.88184c-25.1035 1.24414 -47.3955 13.2969 -62.3408 31.6064c-2.61133 -4.46973 -4.08594 -9.66211 -4.08594 -15.207c0 -10.501 5.36523 -19.7578 13.4658 -25.1797c-4.99219 0.148438 -9.62109 1.52539 -13.7012 3.74805
v-0.337891c0 -14.6592 10.4492 -26.8799 24.2891 -29.6914c-2.55957 -0.691406 -5.23828 -1.06445 -7.97168 -1.06445c-1.97168 0 -3.91211 0.224609 -5.75977 0.5625c3.90625 -12.0371 15.0576 -20.7871 28.3076 -21.0176
c-10.3828 -8.09961 -23.3926 -12.9482 -37.6064 -12.9482c-2.43164 0 -4.83789 0.138672 -7.21387 0.451172c13.3887 -8.62207 29.3379 -13.6191 46.4287 -13.6191c55.5723 0 86.0615 46.1055 86.0615 86.0771c0 1.31055 -0.0820312 2.62598 -0.0820312 3.90137z" />
    <glyph glyph-name="uniF10C" unicode="&#xf10c;" 
d="M312.141 164.992c4.22949 0 7.66504 -3.50195 7.66504 -7.81836c0 -4.30566 -3.43555 -7.81836 -7.66504 -7.81836c-4.25977 0 -7.7002 3.50684 -7.7002 7.81836c0 4.31641 3.44043 7.81836 7.7002 7.81836zM241.438 176.297h-0.00488281v15.2012
c2.83105 -1.16699 4.84375 -2.33496 6.05176 -3.52246c1.21387 -1.15723 1.80762 -2.66211 1.80762 -4.45898c0 -2.33496 -0.757812 -3.99414 -2.26855 -5.00293c-1.50488 -1.00293 -3.35352 -1.75098 -5.58594 -2.2168zM257.244 169.928
c-0.670898 -3.5332 -1.03418 -7.17285 -1.03418 -10.8955c0 -11.4736 3.34375 -22.1641 9.06738 -31.1504l-70.3389 -19.502l-6.54297 6.20605l-5.80566 160.01h56.1504c0.59375 0.0107422 1.16211 0.0107422 1.73047 0.0107422
c17.1211 0 30.3008 -4.66992 39.1992 -13.8652c11.8223 -12.2676 12.0322 -28.749 12.0322 -29.916l-1.71094 -19.2256c-11.2686 -5.04883 -20.6123 -13.7373 -26.5977 -24.5967c-0.573242 4.7207 -2.56055 8.55078 -5.96973 11.4531
c-4.12695 3.4668 -9.66699 6.40527 -16.6406 8.7959v14.0293c3.99902 -0.931641 7.76172 -2.37012 11.3311 -4.39258c3.55273 -1.98145 6.49219 -3.94824 8.80078 -5.88867v15.1807c-3.60938 2.28906 -6.97852 4.04004 -10.0654 5.24805
c-3.09277 1.22363 -6.43652 2.05859 -10.0664 2.5498v4.49609h-7.69531v-4.49609c-5.80078 -0.737305 -10.3682 -2.25781 -13.6963 -4.62305c-3.30664 -2.33984 -5.5752 -4.92578 -6.78906 -7.75195c-1.20312 -2.81055 -1.8125 -5.46289 -1.8125 -7.96094
c0 -2.71387 0.538086 -5.35547 1.63867 -7.88477c1.08594 -2.52441 3.26172 -4.92578 6.50781 -7.23535c3.26172 -2.30859 7.97168 -4.25391 14.1465 -5.8623v-17.1006c-2.58594 0.342773 -5.11523 0.993164 -7.56738 1.94043
c-2.47852 0.926758 -4.86914 2.10938 -7.16309 3.52246c-2.33496 1.41309 -4.51562 2.9541 -6.60449 4.64453v-14.6074c3.20996 -2.03809 6.75781 -3.74316 10.6289 -5.08984c3.8916 -1.35645 7.43945 -2.22168 10.7061 -2.63184v-8.94434h7.69531v8.94434
c5.33984 0.512695 9.71289 1.85352 13.1123 4.04004c1.24414 0.798828 2.36035 1.64844 3.35352 2.5498zM225.464 215.102c0 1.79688 0.722656 3.20996 2.20215 4.23438c1.4541 1.02344 3.2002 1.60254 5.24805 1.71484v-12.7588
c-2.8418 0.675781 -4.8125 1.67871 -5.85742 3.01562c-1.07031 1.33594 -1.59277 2.58594 -1.59277 3.79395zM313.902 212.301c28.6611 0 51.9883 -23.7412 51.9883 -52.9102c0 -29.1582 -23.3213 -52.8896 -51.9883 -52.8896c-28.6572 0 -51.999 23.7314 -51.999 52.8896
c0 29.1689 23.3369 52.9102 51.999 52.9102zM311.967 136.335c11.5352 0 20.915 9.55469 20.915 21.2744c0 11.7402 -9.37988 21.2783 -20.915 21.2783c-11.5205 0 -20.8896 -9.53809 -20.8896 -21.2783c0 -11.7197 9.36914 -21.2744 20.8896 -21.2744zM256 345.088
c84.8281 0 153.6 -68.7715 153.6 -153.6s-68.7715 -153.601 -153.6 -153.601s-153.6 68.7725 -153.6 153.601s68.7715 153.6 153.6 153.6zM312.668 102.748c31.1191 0 56.4434 25.7432 56.4375 57.4004c0 31.6572 -25.3232 57.4209 -56.4375 57.4209
c-6.3125 0 -12.3799 -1.0752 -18.0527 -3.02637l1.53613 17.0908v0.168945c0.0146484 0.757812 0.245117 19.1387 -13.2715 33.1777c-9.74316 10.1328 -24.0176 15.2529 -42.3887 15.2529h-1.76562h-74.4141l10.1836 -157.532l19.2666 -18.2227l74.2549 20.6084
c10.332 -13.5781 26.4961 -22.3389 44.6514 -22.3389z" />
    <glyph glyph-name="uniF10D" unicode="&#xf10d;" 
d="M148.951 81.8945c-28.708 27.9189 -46.5508 66.918 -46.5508 110.126c0 84.4697 68.1826 153.001 152.529 153.595c-1.00293 -14.71 -3.98828 -28.6465 -6.2207 -38.0107c-1.80762 -7.47559 -3.09766 -16.7734 3.05176 -22.252
c2.42188 -2.16016 5.44727 -3.25586 8.98535 -3.25586c4.42871 0 9.05273 1.71484 14.0342 3.55371c3.7627 1.38672 7.64355 2.83105 10.8848 3.3125c3.89648 0.547852 7.89551 -1.06543 11.4688 -4.50586c5.3252 -5.12012 8.59668 -13.373 7.94629 -20.2803
c-0.404297 -6.5127 -3.02051 -7.75195 -3.87012 -8.15137c-5.0127 -2.37012 -17.0244 0.702148 -25.0068 6.43066l-0.511719 0.337891c-1.20312 0.681641 -2.3291 1.61816 -3.52246 2.62695c-3.18945 2.65234 -7.55762 6.29199 -14.8428 6.29199h-7.45996l-1.28516 -7.35156
c-1.65918 -9.55469 -1.8584 -28.0479 -2.06348 -45.9365c-0.117188 -10.624 -0.333008 -30.4131 -1.31055 -33.7207c-2.25293 -5.63672 -19.3232 -25.3496 -28.5078 -32.9678c0.393555 2.14062 0.941406 4.43945 1.23828 5.65723
c1.08594 4.50098 2.10449 8.74023 1.63867 12.8564c-2.17578 15.2119 -13.665 28.6621 -27.9453 32.7021c-12.0723 3.42969 -24.3857 -0.522461 -32.5166 -10.2764c-10.793 -12.4053 -14.7197 -26.8545 -11.0488 -40.668c3.99316 -15.043 16.8037 -27.8066 34.3955 -34.3301
c-2.2373 -2.70312 -6.07227 -6.41016 -8.0332 -8.28906c-1.37207 -1.31543 -2.73926 -2.63184 -3.80371 -3.70703c-6.67676 -6.2207 -12.5283 -13.0664 -18.4111 -19.957zM265.953 303.463c2.40137 10.0703 5.61133 25.082 6.68652 41.2568
c76.9951 -8.2998 136.96 -73.4932 136.96 -152.699c0 -26.5576 -6.7373 -51.5381 -18.6055 -73.3232c-12.7949 8.62695 -27.4482 17.6992 -40.2998 17.6992c-7.42871 0 -13.7314 -3.07129 -18.1807 -8.80566c-3.36914 -4.21973 -5.9707 -9.24707 -8.71973 -14.582
c-3.89648 -7.54688 -8.30469 -16.1074 -13.4297 -17.6543c-2.58594 -0.788086 -6.01074 0.0615234 -10.5322 2.58105c-6.31738 3.37891 -10.3623 10.2344 -10.0498 17.0498c0.229492 5.2168 2.93359 8.96484 7.94531 11.0898
c1.34668 0.547852 3.53809 0.931641 5.48438 1.26465c5.39062 0.936523 12.1084 2.09375 15.8408 8.16602c2.36035 3.83984 2.72949 8.52441 1.10059 13.916c-2.44238 8.05371 -11.627 15.6211 -27.3047 22.5127c-3.1543 1.88477 -18.668 10.9824 -29.4404 15.5391
c0.49707 6.11914 0.686523 15.5039 0.855469 30.7764c0.118164 10.2305 0.240234 21.4121 0.675781 30.3516c0.450195 -0.307617 0.916992 -0.598633 1.4082 -0.880859c8.93945 -6.37891 20.4131 -10.3271 30.0234 -10.3271c4.61328 0 8.78125 0.875977 12.4004 2.59082
c4.83887 2.27832 13.0869 8.31543 13.998 22.8047c1.14258 12.0479 -4.09082 25.585 -13.3574 34.4834c-6.50781 6.24121 -14.208 9.54395 -22.2676 9.54395c-1.31055 0 -2.61621 -0.0927734 -4.00391 -0.282227c-5.2373 -0.788086 -10.4443 -2.71875 -14.6123 -4.26465
c-0.751953 -0.276367 -1.89453 -0.696289 -3.08203 -1.11621c0.132812 0.675781 0.291992 1.44922 0.506836 2.30957zM350.95 118.533c8.5459 0 22.8711 -9.64648 30.623 -14.9248c-27.792 -39.4395 -73.667 -65.2188 -125.578 -65.2188
c-35.2568 0 -67.7178 11.9043 -93.6396 31.877l3.44531 4.03516c5.37598 6.29688 10.9365 12.7998 17.1367 18.6006c1.20801 1.21387 2.50391 2.46289 3.80371 3.71191c8.24902 7.94141 16.7891 16.1533 14.6797 25.7744
c-0.798828 3.68066 -3.50195 8.67285 -11.7715 11.5352c-12.7178 4.44434 -21.8623 12.9023 -24.4424 22.625c-2.1709 8.1875 0.291992 16.4248 7.41406 24.6016c3.89062 4.66504 8.73926 6.27246 14.1611 4.73145c7.61914 -2.16602 14.0186 -9.76367 15.1758 -17.8027
c0.0410156 -1.05469 -0.77832 -4.4541 -1.28516 -6.5332c-2.0166 -8.36621 -5.77539 -23.9307 6.91797 -29.1836c3.1123 -1.57227 6.84473 -1.62793 10.7051 -0.15332c11.751 4.46387 30.9561 26.9668 39.0967 38.5938c7.71094 -3.53223 21.2891 -10.8799 26.8389 -14.3818
l0.773438 -0.404297c10.3115 -4.53613 15.6719 -8.69336 17.4844 -10.7822c-0.808594 -0.15918 -1.6582 -0.307617 -2.31934 -0.419922c-2.82129 -0.492188 -6.02051 -1.04492 -9.25195 -2.35059c-11.4482 -4.87402 -18.3398 -14.6025 -18.8818 -26.7002
c-0.599609 -13.502 7.19824 -26.957 19.2969 -33.4189c8.82715 -4.91992 16.7275 -6.2207 24.1816 -3.99316c12.293 3.70703 18.8164 16.3535 24.0645 26.5312c2.3291 4.52148 4.53613 8.79102 6.86523 11.71c0.75293 0.957031 1.86426 1.94043 4.50586 1.94043z" />
    <glyph glyph-name="uniF10E" unicode="&#xf10e;" 
d="M409.6 288.199c0 -85.4473 -121.042 -248.657 -153.6 -249.794c-32.5479 -1.1416 -153.6 164.347 -153.6 249.794c0 85.4639 68.7666 154.753 153.6 154.753c84.8184 0 153.6 -69.2891 153.6 -154.753z" />
    <glyph glyph-name="uniF10F" unicode="&#xf10f;" 
d="M212.905 274.228c0.481445 0 1.57617 -1.19824 1.57617 -3.18457v-31.2578c0 -1.99219 -1.09473 -3.19531 -1.57617 -3.19531h-50.8672c-0.501953 0 -1.58203 1.20312 -1.58203 3.19531v31.2578c0 1.98633 1.08496 3.18457 1.58203 3.18457h50.8672zM207.692 270.423
c2.46289 1.55176 -1.29492 2.30371 -2.74902 1.36719c-11.3613 -7.1377 -20.7979 -16.9678 -26.8086 -28.4668c-2.23242 2.60059 -4.47461 4.87402 -8.1709 5.99512c-1.51562 0.46582 -5.16113 -1.60254 -2.64258 -2.36523
c4.31152 -1.2959 6.45117 -5.00195 9.1084 -8.05371c1.02441 -1.19336 3.73828 -0.0976562 4.22949 1.0498c5.47363 12.3486 15.1963 23.0498 27.0332 30.4736zM212.905 147.399c0.481445 0 1.57617 -1.19238 1.57617 -3.17383v-31.2578
c0 -1.98145 -1.09473 -3.18457 -1.57617 -3.18457h-50.8672c-0.501953 0 -1.58203 1.20312 -1.58203 3.18457v31.2578c0 1.98145 1.08496 3.17383 1.58203 3.17383h50.8672zM197.622 115.65c1.19238 -0.639648 5.25293 1.01953 3.48145 1.95117
c-5.08984 2.65723 -9.22168 6.61523 -12.7334 10.9922c2.23242 2.89258 4.78711 5.59082 7.23926 8.08984c0.860352 0.911133 -3.27637 0.388672 -3.95215 -0.328125c-1.68945 -1.71973 -3.42578 -3.52246 -5.0791 -5.41113
c-1.37793 1.88379 -2.66309 3.81934 -3.86621 5.73926c-0.833984 1.33594 -5.02734 -0.0615234 -4.38184 -1.0957c1.7041 -2.70898 3.52734 -5.40723 5.53418 -7.9668c-2.74414 -3.59961 -4.98145 -7.50586 -5.90332 -11.7451
c-0.18457 -0.896484 4.10645 -0.250977 4.31641 0.711914c0.655273 3.00977 1.97656 5.85156 3.66016 8.53516c3.29297 -3.76367 7.0918 -7.08105 11.6846 -9.47266zM256 345.6c84.8281 0 153.6 -68.7715 153.6 -153.6s-68.7715 -153.6 -153.6 -153.6
s-153.6 68.7715 -153.6 153.6s68.7715 153.6 153.6 153.6zM221.23 112.788v31.2578c0 5.36621 -3.69238 9.5332 -8.37695 9.5332h-50.8672c-4.7002 0 -8.38672 -4.16699 -8.38672 -9.5332v-31.2578c0 -5.34473 3.68652 -9.52832 8.38672 -9.52832h50.8672
c4.68457 0 8.37695 4.18359 8.37695 9.52832zM221.23 176.379v31.2529c0 5.34473 -3.69238 9.5332 -8.37695 9.5332h-50.8672c-4.7002 0 -8.38672 -4.18848 -8.38672 -9.5332v-31.2529c0 -5.36035 3.68652 -9.54883 8.38672 -9.54883h50.8672
c4.68457 0 8.37695 4.18848 8.37695 9.54883zM221.23 239.949v31.2568c0 5.35059 -3.69141 9.53418 -8.37695 9.53418h-50.8672c-4.7002 0 -8.38672 -4.18848 -8.38672 -9.53418v-31.2568c0 -5.36133 3.68652 -9.54883 8.38672 -9.54883h50.8672
c4.68457 0 8.37695 4.1875 8.37695 9.54883zM358.4 115.513v6.34863h-131.021v-6.34863h131.021zM358.4 136.699v6.3584h-131.021v-6.3584h131.021zM358.4 179.082v6.34863h-131.021v-6.34863h131.021zM358.4 200.279v6.35352h-131.021v-6.35352h131.021zM358.4 242.662
v6.35449h-131.021v-6.35449h131.021zM358.4 263.854v6.34863h-131.021v-6.34863h131.021zM212.905 210.816c0.481445 0 1.57617 -1.20312 1.57617 -3.18555v-31.252c0 -1.99219 -1.09473 -3.2002 -1.57617 -3.2002h-50.8672c-0.501953 0 -1.58203 1.20801 -1.58203 3.2002
v31.252c0 1.98242 1.08496 3.18555 1.58203 3.18555h50.8672zM207.692 207.007c2.46289 1.55664 -1.29492 2.31445 -2.74902 1.37695c-11.3613 -7.13672 -20.792 -16.9727 -26.8086 -28.4668c-2.23242 2.60059 -4.47461 4.86914 -8.1709 5.99023
c-1.51562 0.46582 -5.16113 -1.60742 -2.64258 -2.36035c4.31152 -1.29004 6.45117 -5.00781 9.1084 -8.06934c1.02441 -1.17773 3.73828 -0.0820312 4.22949 1.05957c5.47363 12.3555 15.1963 23.0508 27.0332 30.4697z" />
    <glyph glyph-name="uniF110" unicode="&#xf110;" 
d="M256 345.6c84.833 0 153.6 -68.7715 153.6 -153.6c0 -84.8232 -68.7666 -153.6 -153.6 -153.6s-153.6 68.7764 -153.6 153.6c0 84.8281 68.7666 153.6 153.6 153.6zM285.491 168.382c1.51562 3.625 2.27344 7.50586 2.28906 11.6377
c0 4.42871 -0.743164 8.29883 -2.21191 11.6172c-1.47461 3.3125 -3.42578 6.08789 -5.8418 8.3252c-2.41699 2.23242 -5.21289 3.90137 -8.38672 5.00684c-3.1748 1.10645 -6.44141 1.65918 -9.7998 1.65918c-2.33496 0 -4.49512 -0.246094 -6.48242 -0.737305
c-1.99121 -0.491211 -3.83984 -1.16699 -5.55957 -2.02734c0.491211 0.655273 0.987305 1.29004 1.50488 1.9043c0.506836 0.614258 1.0498 1.26953 1.62305 1.96582l26.3574 32.2568h-13.5215c-1.83789 0 -3.47168 -0.34375 -4.88477 -1.04004
c-1.41309 -0.701172 -2.4834 -1.54102 -3.22559 -2.51855l-21.1963 -28.4521c-3.56348 -4.75098 -6.19531 -9.32324 -7.89551 -13.7314s-2.5498 -8.69922 -2.5498 -12.8721c0 -4.66895 0.707031 -8.91895 2.12012 -12.749
c1.41309 -3.8291 3.44531 -7.10645 6.11328 -9.83008c2.66211 -2.72363 5.87695 -4.84375 9.64551 -6.35938c3.76367 -1.51562 8.02344 -2.27344 12.7793 -2.27344c4.66992 0 8.94043 0.77832 12.8105 2.33496c3.87109 1.56152 7.17871 3.69141 9.92285 6.38965
c2.74414 2.7041 4.87402 5.86816 6.38965 9.49316zM268.104 190.925c1.43359 -1.4082 2.54004 -3.12793 3.3125 -5.15039c0.783203 -2.02832 1.17285 -4.31152 1.17285 -6.85059c0 -2.33496 -0.40918 -4.49609 -1.22852 -6.48242
c-0.819336 -1.99121 -1.95605 -3.72168 -3.41016 -5.19629c-1.45898 -1.46973 -3.19531 -2.62207 -5.22266 -3.44141c-2.03223 -0.818359 -4.24902 -1.22363 -6.6709 -1.22363c-2.58105 0 -4.84863 0.394531 -6.82031 1.19336
c-1.96582 0.798828 -3.61426 1.91016 -4.94531 3.34863c-1.33203 1.43848 -2.33496 3.16406 -3.01074 5.19141s-1.01367 4.27051 -1.01367 6.72754c0 2.28906 0.383789 4.42871 1.1416 6.4209c0.757812 1.98633 1.84277 3.70703 3.25586 5.16113
s3.09766 2.59082 5.06934 3.40918c1.96582 0.819336 4.15234 1.22949 6.56836 1.22949c2.42188 0 4.62891 -0.369141 6.64062 -1.10645c2.00781 -0.742188 3.72754 -1.81738 5.16113 -3.23047z" />
    <glyph glyph-name="uniF111" unicode="&#xf111;" 
d="M259.851 184.633h-27.0391l27.5918 38.0312c-0.205078 -1.63867 -0.348633 -3.21582 -0.430664 -4.73145c-0.0810547 -1.51562 -0.12207 -2.92871 -0.12207 -4.23926v-29.0605zM256 345.6c84.833 0 153.6 -68.7715 153.6 -153.6
c0 -84.8232 -68.7666 -153.6 -153.6 -153.6s-153.6 68.7764 -153.6 153.6c0 84.8281 68.7666 153.6 153.6 153.6zM284.304 175.847h0.00976562v8.78613h-11.1875v55.418h-14.377l-42.0859 -56.2168l1.53613 -7.68066c0.205078 -0.941406 0.696289 -1.73047 1.47461 -2.36523
c0.772461 -0.634766 1.67871 -0.952148 2.69824 -0.952148h37.4785v-21.6885h13.2705v21.6885h8.04883c1.02441 0 1.80273 0.296875 2.33496 0.890625c0.527344 0.588867 0.798828 1.30078 0.798828 2.12012z" />
    <glyph glyph-name="uniF112" unicode="&#xf112;" 
d="M409.6 192c0 -84.8232 -68.7666 -153.6 -153.6 -153.6s-153.6 68.7764 -153.6 153.6c0 84.8281 68.7666 153.6 153.6 153.6s153.6 -68.7715 153.6 -153.6zM286.521 147.052h-0.00488281v9.07227c0 1.51562 -0.481445 2.72949 -1.44434 3.65625
c-0.962891 0.920898 -2.26855 1.38184 -3.90137 1.38184h-22.7939c-1.7207 0 -3.52832 -0.148438 -5.40723 -0.460938c-1.88379 -0.306641 -3.80859 -0.74707 -5.77539 -1.32031l20.0244 20.459c2.37598 2.45215 4.64941 4.87402 6.82031 7.25
c2.1709 2.37109 4.05957 4.82324 5.68262 7.36816c1.62305 2.54395 2.9082 5.20703 3.87109 7.99219s1.44336 5.81055 1.44336 9.08789c0 3.80957 -0.669922 7.27051 -2.02734 10.3828c-1.35156 3.11816 -3.23535 5.77539 -5.65234 7.99316
c-2.41699 2.21094 -5.3252 3.92188 -8.72461 5.12988c-3.39941 1.20312 -7.14746 1.8125 -11.2432 1.8125c-3.92676 0 -7.60352 -0.547852 -11.0234 -1.62793c-3.41992 -1.08594 -6.45117 -2.69824 -9.09277 -4.84863
c-2.64258 -2.15039 -4.84375 -4.83398 -6.60547 -8.04883c-1.75586 -3.21582 -2.94922 -6.95801 -3.56348 -11.2178l7.99219 -1.4082c0.737305 -0.123047 1.41309 -0.18457 2.02832 -0.18457c1.39746 0 2.53906 0.333008 3.44043 1.01855
c0.900391 0.675781 1.57715 1.78711 2.02734 3.34375c0.942383 3.11328 2.59082 5.60156 4.94629 7.43457c2.35449 1.84766 5.35547 2.76953 9 2.76953c1.97168 0 3.73828 -0.276367 5.31543 -0.829102c1.58203 -0.547852 2.93848 -1.37793 4.08496 -2.4834
c1.15234 -1.10645 2.0332 -2.47266 2.64746 -4.09082c0.614258 -1.61328 0.921875 -3.48633 0.921875 -5.62207c0 -2.3291 -0.317383 -4.55176 -0.952148 -6.66113c-0.635742 -2.10938 -1.5625 -4.1875 -2.76562 -6.23633
c-1.20801 -2.04199 -2.70312 -4.11133 -4.48438 -6.2002c-1.78711 -2.08887 -3.80469 -4.28516 -6.05762 -6.57422l-26.9717 -27.0332c-0.942383 -0.947266 -1.62793 -1.96582 -2.05859 -3.07227c-0.429688 -1.11035 -0.644531 -2.17578 -0.644531 -3.19434v-5.03809
h60.9482z" />
    <glyph glyph-name="uniF113" unicode="&#xf113;" 
d="M256 345.6c84.833 0 153.6 -68.7715 153.6 -153.6c0 -84.8232 -68.7666 -153.6 -153.6 -153.6s-153.6 68.7764 -153.6 153.6c0 84.8281 68.7666 153.6 153.6 153.6zM284.877 160.65c1.63867 3.39453 2.45703 7.31152 2.46289 11.7354
c0 5.19629 -1.31055 9.51758 -3.9375 12.958c-2.62109 3.44629 -6.59473 6.00098 -11.9141 7.68066c2.20605 0.742188 4.18262 1.66406 5.92383 2.76953c1.74609 1.10547 3.21484 2.46289 4.42383 4.05469c1.20801 1.60254 2.12988 3.47656 2.76465 5.62695
c0.639648 2.15039 0.957031 4.63379 0.957031 7.46484c0 3.23633 -0.624023 6.24707 -1.87402 9.03223c-1.24902 2.78027 -3.04102 5.20215 -5.37598 7.27539s-5.15039 3.68652 -8.44824 4.8584c-3.30176 1.16309 -6.99316 1.74609 -11.0898 1.74609
c-3.92676 0 -7.6084 -0.547852 -11.0283 -1.62793c-3.41992 -1.08496 -6.44629 -2.70801 -9.08789 -4.8584c-2.64648 -2.15039 -4.84375 -4.83398 -6.60449 -8.04883c-1.76172 -3.21582 -2.94922 -6.95312 -3.56348 -11.2129l7.9873 -1.3877
c0.737305 -0.123047 1.43359 -0.18457 2.08887 -0.18457c1.39258 0 2.51855 0.337891 3.37891 1.01367c0.855469 0.675781 1.53125 1.79199 2.02734 3.34375c0.942383 2.98535 2.60156 5.43262 4.97656 7.33203c2.37598 1.9043 5.36621 2.85645 8.9707 2.85645
c3.96777 0 7.10645 -1.0752 9.40039 -3.22559s3.44043 -5.33008 3.44043 -9.55371c0 -1.96582 -0.287109 -3.77344 -0.860352 -5.40625c-0.578125 -1.63867 -1.58691 -3.04199 -3.04102 -4.20898s-3.41016 -2.08398 -5.86719 -2.73926
c-2.45801 -0.655273 -5.55078 -0.977539 -9.27832 -0.977539v-10.875c4.50098 0 8.10059 -0.348633 10.7783 -1.0498c2.68262 -0.696289 4.74609 -1.65918 6.1748 -2.8877c1.43848 -1.21875 2.375 -2.70898 2.83105 -4.44922
c0.450195 -1.74121 0.675781 -3.68164 0.675781 -5.81152c0 -1.68457 -0.322266 -3.34863 -0.957031 -5.00195c-0.635742 -1.66406 -1.59277 -3.16895 -2.88281 -4.52148c-1.29004 -1.35156 -2.89844 -2.45215 -4.82324 -3.29199s-4.17285 -1.25879 -6.75879 -1.25879
c-2.28809 0 -4.26953 0.337891 -5.92383 1.01367c-1.66309 0.675781 -3.10742 1.55566 -4.33594 2.6416c-1.22363 1.08496 -2.27832 2.33008 -3.15918 3.72266c-0.885742 1.39258 -1.68945 2.80566 -2.43164 4.23926c-0.451172 0.859375 -1.0957 1.51562 -1.93555 1.96582
s-1.79199 0.675781 -2.85742 0.675781c-1.19238 0 -2.35547 -0.246094 -3.50684 -0.737305l-6.69727 -2.75977c1.22852 -3.81445 2.70312 -7.17773 4.42383 -10.0811c1.7207 -2.9082 3.81445 -5.36621 6.2666 -7.37305c2.45801 -2.01172 5.3457 -3.52734 8.66309 -4.54688
c3.3125 -1.02344 7.2041 -1.54102 11.6689 -1.54102c4.09082 0 7.97656 0.599609 11.6426 1.78711c3.66602 1.18262 6.8916 2.93359 9.67676 5.25293c2.78516 2.30957 5.00195 5.16602 6.63574 8.57129z" />
  </font>
</defs>
</svg>
